<?xml version="1.0" encoding="UTF-8"?>
<!DOCTYPE svg
PUBLIC "-//W3C//DTD SVG 1.1//EN"
       "http://www.w3.org/Graphics/SVG/1.1/DTD/svg11.dtd">
<svg viewBox="68 -15 1678 881" width="1610px" height="896px" xmlns="http://www.w3.org/2000/svg" version="1.1">
   <line x1="537" y1="174" x2="527" y2="174" style="stroke:#0bf;stroke-width:1;"/>
   <line x1="320" y1="30" x2="310" y2="30" style="stroke:#0bf;stroke-width:1;"/>
   <line x1="527" y1="174" x2="320" y2="30" style="stroke:#0bf;stroke-width:1;"/>
   <line x1="529.5" y1="174" x2="533.03553390593" y2="177.53553390593" style="stroke:#0bf;stroke-width:2;"/>
   <line x1="529.5" y1="174" x2="533.03553390593" y2="170.46446609407" style="stroke:#0bf;stroke-width:2;"/>
   <line x1="315" y1="30" x2="318.53553390593" y2="33.535533905933" style="stroke:#0bf;stroke-width:2;"/>
   <line x1="315" y1="30" x2="318.53553390593" y2="26.464466094067" style="stroke:#0bf;stroke-width:2;"/>
   <line x1="644" y1="154" x2="654" y2="154" style="stroke:#0b0;stroke-width:1;"/>
   <line x1="1040" y1="247" x2="1050" y2="247" style="stroke:#0b0;stroke-width:1;"/>
   <line x1="654" y1="154" x2="1040" y2="247" style="stroke:#0b0;stroke-width:1;"/>
   <line x1="651.5" y1="154" x2="647.96446609407" y2="157.53553390593" style="stroke:#0b0;stroke-width:2;"/>
   <line x1="651.5" y1="154" x2="647.96446609407" y2="150.46446609407" style="stroke:#0b0;stroke-width:2;"/>
   <line x1="1045" y1="247" x2="1041.4644660941" y2="250.53553390593" style="stroke:#0b0;stroke-width:2;"/>
   <line x1="1045" y1="247" x2="1041.4644660941" y2="243.46446609407" style="stroke:#0b0;stroke-width:2;"/>
   <line x1="376" y1="796" x2="366" y2="796" style="stroke:#0bf;stroke-width:1;"/>
   <line x1="296" y1="507" x2="286" y2="507" style="stroke:#0bf;stroke-width:1;"/>
   <line x1="366" y1="796" x2="296" y2="507" style="stroke:#0bf;stroke-width:1;"/>
   <line x1="368.5" y1="796" x2="372.03553390593" y2="799.53553390593" style="stroke:#0bf;stroke-width:2;"/>
   <line x1="368.5" y1="796" x2="372.03553390593" y2="792.46446609407" style="stroke:#0bf;stroke-width:2;"/>
   <line x1="291" y1="507" x2="294.53553390593" y2="510.53553390593" style="stroke:#0bf;stroke-width:2;"/>
   <line x1="291" y1="507" x2="294.53553390593" y2="503.46446609407" style="stroke:#0bf;stroke-width:2;"/>
   <line x1="376" y1="836" x2="366" y2="836" style="stroke:#b0b;stroke-width:1;"/>
   <line x1="296" y1="507" x2="286" y2="507" style="stroke:#b0b;stroke-width:1;"/>
   <line x1="366" y1="836" x2="296" y2="507" style="stroke:#b0b;stroke-width:1;"/>
   <line x1="368.5" y1="836" x2="372.03553390593" y2="839.53553390593" style="stroke:#b0b;stroke-width:2;"/>
   <line x1="368.5" y1="836" x2="372.03553390593" y2="832.46446609407" style="stroke:#b0b;stroke-width:2;"/>
   <line x1="291" y1="507" x2="294.53553390593" y2="510.53553390593" style="stroke:#b0b;stroke-width:2;"/>
   <line x1="291" y1="507" x2="294.53553390593" y2="503.46446609407" style="stroke:#b0b;stroke-width:2;"/>
   <line x1="814" y1="513" x2="824" y2="513" style="stroke:#bbb;stroke-width:1;"/>
   <line x1="1040" y1="247" x2="1050" y2="247" style="stroke:#bbb;stroke-width:1;"/>
   <line x1="824" y1="513" x2="1040" y2="247" style="stroke:#bbb;stroke-width:1;"/>
   <line x1="821.5" y1="513" x2="817.96446609407" y2="516.53553390593" style="stroke:#bbb;stroke-width:2;"/>
   <line x1="821.5" y1="513" x2="817.96446609407" y2="509.46446609407" style="stroke:#bbb;stroke-width:2;"/>
   <line x1="1045" y1="247" x2="1041.4644660941" y2="250.53553390593" style="stroke:#bbb;stroke-width:2;"/>
   <line x1="1045" y1="247" x2="1041.4644660941" y2="243.46446609407" style="stroke:#bbb;stroke-width:2;"/>
   <line x1="741" y1="533" x2="731" y2="533" style="stroke:#0b0;stroke-width:1;"/>
   <line x1="296" y1="507" x2="286" y2="507" style="stroke:#0b0;stroke-width:1;"/>
   <line x1="731" y1="533" x2="296" y2="507" style="stroke:#0b0;stroke-width:1;"/>
   <line x1="733.5" y1="533" x2="737.03553390593" y2="536.53553390593" style="stroke:#0b0;stroke-width:2;"/>
   <line x1="733.5" y1="533" x2="737.03553390593" y2="529.46446609407" style="stroke:#0b0;stroke-width:2;"/>
   <line x1="291" y1="507" x2="294.53553390593" y2="510.53553390593" style="stroke:#0b0;stroke-width:2;"/>
   <line x1="291" y1="507" x2="294.53553390593" y2="503.46446609407" style="stroke:#0b0;stroke-width:2;"/>
   <line x1="741" y1="553" x2="731" y2="553" style="stroke:#bbb;stroke-width:1;"/>
   <line x1="509" y1="736" x2="499" y2="736" style="stroke:#bbb;stroke-width:1;"/>
   <line x1="731" y1="553" x2="509" y2="736" style="stroke:#bbb;stroke-width:1;"/>
   <line x1="733.5" y1="553" x2="737.03553390593" y2="556.53553390593" style="stroke:#bbb;stroke-width:2;"/>
   <line x1="733.5" y1="553" x2="737.03553390593" y2="549.46446609407" style="stroke:#bbb;stroke-width:2;"/>
   <line x1="504" y1="736" x2="507.53553390593" y2="739.53553390593" style="stroke:#bbb;stroke-width:2;"/>
   <line x1="504" y1="736" x2="507.53553390593" y2="732.46446609407" style="stroke:#bbb;stroke-width:2;"/>
   <line x1="1050" y1="507" x2="1040" y2="507" style="stroke:#b0b;stroke-width:1;"/>
   <line x1="1040" y1="247" x2="1050" y2="247" style="stroke:#b0b;stroke-width:1;"/>
   <line x1="1040" y1="507" x2="1040" y2="247" style="stroke:#b0b;stroke-width:1;"/>
   <line x1="1042.5" y1="507" x2="1046.0355339059" y2="510.53553390593" style="stroke:#b0b;stroke-width:2;"/>
   <line x1="1042.5" y1="507" x2="1046.0355339059" y2="503.46446609407" style="stroke:#b0b;stroke-width:2;"/>
   <line x1="1045" y1="247" x2="1041.4644660941" y2="250.53553390593" style="stroke:#b0b;stroke-width:2;"/>
   <line x1="1045" y1="247" x2="1041.4644660941" y2="243.46446609407" style="stroke:#b0b;stroke-width:2;"/>
   <line x1="1050" y1="527" x2="1040" y2="527" style="stroke:#b0b;stroke-width:1;"/>
   <line x1="1040" y1="247" x2="1050" y2="247" style="stroke:#b0b;stroke-width:1;"/>
   <line x1="1040" y1="527" x2="1040" y2="247" style="stroke:#b0b;stroke-width:1;"/>
   <line x1="1042.5" y1="527" x2="1046.0355339059" y2="530.53553390593" style="stroke:#b0b;stroke-width:2;"/>
   <line x1="1042.5" y1="527" x2="1046.0355339059" y2="523.46446609407" style="stroke:#b0b;stroke-width:2;"/>
   <line x1="1045" y1="247" x2="1041.4644660941" y2="250.53553390593" style="stroke:#b0b;stroke-width:2;"/>
   <line x1="1045" y1="247" x2="1041.4644660941" y2="243.46446609407" style="stroke:#b0b;stroke-width:2;"/>
   <line x1="1214" y1="307" x2="1224" y2="307" style="stroke:#0b0;stroke-width:1;"/>
   <line x1="1303" y1="333" x2="1313" y2="333" style="stroke:#0b0;stroke-width:1;"/>
   <line x1="1224" y1="307" x2="1303" y2="333" style="stroke:#0b0;stroke-width:1;"/>
   <line x1="1221.5" y1="307" x2="1217.9644660941" y2="310.53553390593" style="stroke:#0b0;stroke-width:2;"/>
   <line x1="1221.5" y1="307" x2="1217.9644660941" y2="303.46446609407" style="stroke:#0b0;stroke-width:2;"/>
   <line x1="1308" y1="333" x2="1304.4644660941" y2="336.53553390593" style="stroke:#0b0;stroke-width:2;"/>
   <line x1="1308" y1="333" x2="1304.4644660941" y2="329.46446609407" style="stroke:#0b0;stroke-width:2;"/>
   <line x1="1387" y1="373" x2="1397" y2="373" style="stroke:#c00;stroke-width:1;"/>
   <line x1="1518" y1="109" x2="1528" y2="109" style="stroke:#c00;stroke-width:1;"/>
   <line x1="1397" y1="373" x2="1518" y2="109" style="stroke:#c00;stroke-width:1;"/>
   <line x1="1394.5" y1="373" x2="1390.9644660941" y2="376.53553390593" style="stroke:#c00;stroke-width:2;"/>
   <line x1="1394.5" y1="373" x2="1390.9644660941" y2="369.46446609407" style="stroke:#c00;stroke-width:2;"/>
   <line x1="1523" y1="109" x2="1519.4644660941" y2="112.53553390593" style="stroke:#c00;stroke-width:2;"/>
   <line x1="1523" y1="109" x2="1519.4644660941" y2="105.46446609407" style="stroke:#c00;stroke-width:2;"/>
   <line x1="1387" y1="393" x2="1397" y2="393" style="stroke:#c00;stroke-width:1;"/>
   <line x1="1488" y1="420" x2="1498" y2="420" style="stroke:#c00;stroke-width:1;"/>
   <line x1="1397" y1="393" x2="1488" y2="420" style="stroke:#c00;stroke-width:1;"/>
   <line x1="1394.5" y1="393" x2="1390.9644660941" y2="396.53553390593" style="stroke:#c00;stroke-width:2;"/>
   <line x1="1394.5" y1="393" x2="1390.9644660941" y2="389.46446609407" style="stroke:#c00;stroke-width:2;"/>
   <line x1="1493" y1="420" x2="1489.4644660941" y2="423.53553390593" style="stroke:#c00;stroke-width:2;"/>
   <line x1="1493" y1="420" x2="1489.4644660941" y2="416.46446609407" style="stroke:#c00;stroke-width:2;"/>
   <line x1="635" y1="397" x2="645" y2="397" style="stroke:#b0b;stroke-width:1;"/>
   <line x1="1040" y1="247" x2="1050" y2="247" style="stroke:#b0b;stroke-width:1;"/>
   <line x1="645" y1="397" x2="1040" y2="247" style="stroke:#b0b;stroke-width:1;"/>
   <line x1="642.5" y1="397" x2="638.96446609407" y2="400.53553390593" style="stroke:#b0b;stroke-width:2;"/>
   <line x1="642.5" y1="397" x2="638.96446609407" y2="393.46446609407" style="stroke:#b0b;stroke-width:2;"/>
   <line x1="1045" y1="247" x2="1041.4644660941" y2="250.53553390593" style="stroke:#b0b;stroke-width:2;"/>
   <line x1="1045" y1="247" x2="1041.4644660941" y2="243.46446609407" style="stroke:#b0b;stroke-width:2;"/>
   <rect width="107" height="20" x="537" y="64" style="fill:#007;stroke:black;"/>
   <text width="107" height="20" x="542" y="78" style="fill:#fff;" font-family="Arial" font-size="16px"> objev</text>
   <rect width="107" height="20" x="537" y="84" style="fill:#aea;stroke:black;"/>
   <text width="107" height="20" x="542" y="98" style="fill:black;" font-family="Arial" font-size="16px">id_obj</text>
   <rect width="107" height="20" x="537" y="104" style="fill:none;stroke:black;"/>
   <text width="107" height="20" x="542" y="118" style="fill:black;" font-family="Arial" font-size="16px">datum_objevu</text>
   <rect width="107" height="20" x="537" y="124" style="fill:none;stroke:black;"/>
   <text width="107" height="20" x="542" y="138" style="fill:black;" font-family="Arial" font-size="16px">objevitel</text>
   <rect width="107" height="20" x="537" y="144" style="fill:none;stroke:black;"/>
   <text width="107" height="20" x="542" y="158" style="fill:black;" font-family="Arial" font-size="16px">id_pla</text>
   <rect width="107" height="20" x="537" y="164" style="fill:none;stroke:black;"/>
   <text width="107" height="20" x="542" y="178" style="fill:black;" font-family="Arial" font-size="16px">id_jme</text>
   <rect width="121" height="20" x="189" y="0" style="fill:#007;stroke:black;"/>
   <text width="121" height="20" x="194" y="14" style="fill:#fff;" font-family="Arial" font-size="16px"> objevitel</text>
   <rect width="121" height="20" x="189" y="20" style="fill:#aea;stroke:black;"/>
   <text width="121" height="20" x="194" y="34" style="fill:black;" font-family="Arial" font-size="16px">id_jme</text>
   <rect width="121" height="20" x="189" y="40" style="fill:none;stroke:black;"/>
   <text width="121" height="20" x="194" y="54" style="fill:black;" font-family="Arial" font-size="16px">jmeno</text>
   <rect width="121" height="20" x="189" y="60" style="fill:none;stroke:black;"/>
   <text width="121" height="20" x="194" y="74" style="fill:black;" font-family="Arial" font-size="16px">prijmeni</text>
   <rect width="121" height="20" x="189" y="80" style="fill:none;stroke:black;"/>
   <text width="121" height="20" x="194" y="94" style="fill:black;" font-family="Arial" font-size="16px">datum_narozeni</text>
   <rect width="121" height="20" x="189" y="100" style="fill:none;stroke:black;"/>
   <text width="121" height="20" x="194" y="114" style="fill:black;" font-family="Arial" font-size="16px">zeme_narozeni</text>
   <rect width="121" height="20" x="189" y="120" style="fill:none;stroke:black;"/>
   <text width="121" height="20" x="194" y="134" style="fill:black;" font-family="Arial" font-size="16px">misto_narozeni</text>
   <rect width="121" height="20" x="189" y="140" style="fill:none;stroke:black;"/>
   <text width="121" height="20" x="194" y="154" style="fill:black;" font-family="Arial" font-size="16px">puvod</text>
   <rect width="203" height="20" x="83" y="477" style="fill:#007;stroke:black;"/>
   <text width="203" height="20" x="88" y="491" style="fill:#fff;" font-family="Arial" font-size="16px"> prvky</text>
   <rect width="203" height="20" x="83" y="497" style="fill:#aea;stroke:black;"/>
   <text width="203" height="20" x="88" y="511" style="fill:black;" font-family="Arial" font-size="16px">id_prv</text>
   <rect width="203" height="20" x="83" y="517" style="fill:none;stroke:black;"/>
   <text width="203" height="20" x="88" y="531" style="fill:black;" font-family="Arial" font-size="16px">nazev</text>
   <rect width="203" height="20" x="83" y="537" style="fill:none;stroke:black;"/>
   <text width="203" height="20" x="88" y="551" style="fill:black;" font-family="Arial" font-size="16px">zkratka</text>
   <rect width="203" height="20" x="83" y="557" style="fill:none;stroke:black;"/>
   <text width="203" height="20" x="88" y="571" style="fill:black;" font-family="Arial" font-size="16px">protonove_cislo</text>
   <rect width="203" height="20" x="83" y="577" style="fill:none;stroke:black;"/>
   <text width="203" height="20" x="88" y="591" style="fill:black;" font-family="Arial" font-size="16px">relativni_atomova_hmotnost</text>
   <rect width="203" height="20" x="83" y="597" style="fill:none;stroke:black;"/>
   <text width="203" height="20" x="88" y="611" style="fill:black;" font-family="Arial" font-size="16px">elektronegativita</text>
   <rect width="203" height="20" x="83" y="617" style="fill:none;stroke:black;"/>
   <text width="203" height="20" x="88" y="631" style="fill:black;" font-family="Arial" font-size="16px">skupina</text>
   <rect width="123" height="20" x="376" y="706" style="fill:#007;stroke:black;"/>
   <text width="123" height="20" x="381" y="720" style="fill:#fff;" font-family="Arial" font-size="16px"> slouceniny</text>
   <rect width="123" height="20" x="376" y="726" style="fill:#aea;stroke:black;"/>
   <text width="123" height="20" x="381" y="740" style="fill:black;" font-family="Arial" font-size="16px">id_slouc</text>
   <rect width="123" height="20" x="376" y="746" style="fill:none;stroke:black;"/>
   <text width="123" height="20" x="381" y="760" style="fill:black;" font-family="Arial" font-size="16px">nazev</text>
   <rect width="123" height="20" x="376" y="766" style="fill:none;stroke:black;"/>
   <text width="123" height="20" x="381" y="780" style="fill:black;" font-family="Arial" font-size="16px">zkratka</text>
   <rect width="123" height="20" x="376" y="786" style="fill:none;stroke:black;"/>
   <text width="123" height="20" x="381" y="800" style="fill:black;" font-family="Arial" font-size="16px">id_prv1</text>
   <rect width="123" height="20" x="376" y="806" style="fill:none;stroke:black;"/>
   <text width="123" height="20" x="381" y="820" style="fill:black;" font-family="Arial" font-size="16px">pocet_molekul_1</text>
   <rect width="123" height="20" x="376" y="826" style="fill:none;stroke:black;"/>
   <text width="123" height="20" x="381" y="840" style="fill:black;" font-family="Arial" font-size="16px">id_prv2</text>
   <rect width="123" height="20" x="376" y="846" style="fill:none;stroke:black;"/>
   <text width="123" height="20" x="381" y="860" style="fill:black;" font-family="Arial" font-size="16px">pocet_molekul_2</text>
   <rect width="73" height="20" x="741" y="483" style="fill:#007;stroke:black;"/>
   <text width="73" height="20" x="746" y="497" style="fill:#fff;" font-family="Arial" font-size="16px"> slozeni</text>
   <rect width="73" height="20" x="741" y="503" style="fill:none;stroke:black;"/>
   <text width="73" height="20" x="746" y="517" style="fill:black;" font-family="Arial" font-size="16px">id_pla</text>
   <rect width="73" height="20" x="741" y="523" style="fill:none;stroke:black;"/>
   <text width="73" height="20" x="746" y="537" style="fill:black;" font-family="Arial" font-size="16px">id_prv</text>
   <rect width="73" height="20" x="741" y="543" style="fill:none;stroke:black;"/>
   <text width="73" height="20" x="746" y="557" style="fill:black;" font-family="Arial" font-size="16px">id_slouc</text>
   <rect width="73" height="20" x="741" y="563" style="fill:none;stroke:black;"/>
   <text width="73" height="20" x="746" y="577" style="fill:black;" font-family="Arial" font-size="16px">vyskyt_(%)</text>
   <rect width="164" height="20" x="1050" y="217" style="fill:#007;stroke:black;"/>
   <text width="164" height="20" x="1055" y="231" style="fill:#fff;" font-family="Arial" font-size="16px"> teleso</text>
   <rect width="164" height="20" x="1050" y="237" style="fill:#aea;stroke:black;"/>
   <text width="164" height="20" x="1055" y="251" style="fill:black;" font-family="Arial" font-size="16px">id_tel</text>
   <rect width="164" height="20" x="1050" y="257" style="fill:none;stroke:black;"/>
   <text width="164" height="20" x="1055" y="271" style="fill:black;" font-family="Arial" font-size="16px">nazev</text>
   <rect width="164" height="20" x="1050" y="277" style="fill:none;stroke:black;"/>
   <text width="164" height="20" x="1055" y="291" style="fill:black;" font-family="Arial" font-size="16px">symbol</text>
   <rect width="164" height="20" x="1050" y="297" style="fill:none;stroke:black;"/>
   <text width="164" height="20" x="1055" y="311" style="fill:black;" font-family="Arial" font-size="16px">id_typ_tel</text>
   <rect width="164" height="20" x="1050" y="317" style="fill:none;stroke:black;"/>
   <text width="164" height="20" x="1055" y="331" style="fill:black;" font-family="Arial" font-size="16px">prumer_(km)</text>
   <rect width="164" height="20" x="1050" y="337" style="fill:none;stroke:black;"/>
   <text width="164" height="20" x="1055" y="351" style="fill:black;" font-family="Arial" font-size="16px">hmotnost_(kg)</text>
   <rect width="164" height="20" x="1050" y="357" style="fill:none;stroke:black;"/>
   <text width="164" height="20" x="1055" y="371" style="fill:black;" font-family="Arial" font-size="16px">hustota_(g/cm^(3))</text>
   <rect width="164" height="20" x="1050" y="377" style="fill:none;stroke:black;"/>
   <text width="164" height="20" x="1055" y="391" style="fill:black;" font-family="Arial" font-size="16px">gravitace_(m/s^(2))</text>
   <rect width="164" height="20" x="1050" y="397" style="fill:none;stroke:black;"/>
   <text width="164" height="20" x="1055" y="411" style="fill:black;" font-family="Arial" font-size="16px">min_teplota_(K)</text>
   <rect width="164" height="20" x="1050" y="417" style="fill:none;stroke:black;"/>
   <text width="164" height="20" x="1055" y="431" style="fill:black;" font-family="Arial" font-size="16px">prum_teplota_(K)</text>
   <rect width="164" height="20" x="1050" y="437" style="fill:none;stroke:black;"/>
   <text width="164" height="20" x="1055" y="451" style="fill:black;" font-family="Arial" font-size="16px">max_teplota_(K)</text>
   <rect width="164" height="20" x="1050" y="457" style="fill:none;stroke:black;"/>
   <text width="164" height="20" x="1055" y="471" style="fill:black;" font-family="Arial" font-size="16px">rychlost_rotace_(km/h)</text>
   <rect width="164" height="20" x="1050" y="477" style="fill:none;stroke:black;"/>
   <text width="164" height="20" x="1055" y="491" style="fill:black;" font-family="Arial" font-size="16px">perioda_(d)</text>
   <rect width="164" height="20" x="1050" y="497" style="fill:none;stroke:black;"/>
   <text width="164" height="20" x="1055" y="511" style="fill:black;" font-family="Arial" font-size="16px">id_mat_hve</text>
   <rect width="164" height="20" x="1050" y="517" style="fill:none;stroke:black;"/>
   <text width="164" height="20" x="1055" y="531" style="fill:black;" font-family="Arial" font-size="16px">id_pla</text>
   <rect width="135" height="20" x="1528" y="79" style="fill:#007;stroke:black;"/>
   <text width="135" height="20" x="1533" y="93" style="fill:#fff;" font-family="Arial" font-size="16px"> typy_hvezd</text>
   <rect width="135" height="20" x="1528" y="99" style="fill:#aea;stroke:black;"/>
   <text width="135" height="20" x="1533" y="113" style="fill:black;" font-family="Arial" font-size="16px">id_hve</text>
   <rect width="135" height="20" x="1528" y="119" style="fill:none;stroke:black;"/>
   <text width="135" height="20" x="1533" y="133" style="fill:black;" font-family="Arial" font-size="16px">typ</text>
   <rect width="135" height="20" x="1528" y="139" style="fill:none;stroke:black;"/>
   <text width="135" height="20" x="1533" y="153" style="fill:black;" font-family="Arial" font-size="16px">spektralni_trida</text>
   <rect width="135" height="20" x="1528" y="159" style="fill:none;stroke:black;"/>
   <text width="135" height="20" x="1533" y="173" style="fill:black;" font-family="Arial" font-size="16px">barva</text>
   <rect width="135" height="20" x="1528" y="179" style="fill:none;stroke:black;"/>
   <text width="135" height="20" x="1533" y="193" style="fill:black;" font-family="Arial" font-size="16px">teplota_(K)</text>
   <rect width="135" height="20" x="1528" y="199" style="fill:none;stroke:black;"/>
   <text width="135" height="20" x="1533" y="213" style="fill:black;" font-family="Arial" font-size="16px">zastoupení_(%)</text>
   <rect width="135" height="20" x="1528" y="219" style="fill:none;stroke:black;"/>
   <text width="135" height="20" x="1533" y="233" style="fill:black;" font-family="Arial" font-size="16px">zivotnost_(mil._let)</text>
   <rect width="84" height="20" x="1498" y="390" style="fill:#007;stroke:black;"/>
   <text width="84" height="20" x="1503" y="404" style="fill:#fff;" font-family="Arial" font-size="16px"> typy_planet</text>
   <rect width="84" height="20" x="1498" y="410" style="fill:#aea;stroke:black;"/>
   <text width="84" height="20" x="1503" y="424" style="fill:black;" font-family="Arial" font-size="16px">id_pla</text>
   <rect width="84" height="20" x="1498" y="430" style="fill:none;stroke:black;"/>
   <text width="84" height="20" x="1503" y="444" style="fill:black;" font-family="Arial" font-size="16px">typ</text>
   <rect width="74" height="20" x="1313" y="303" style="fill:#007;stroke:black;"/>
   <text width="74" height="20" x="1318" y="317" style="fill:#fff;" font-family="Arial" font-size="16px"> typ_telesa</text>
   <rect width="74" height="20" x="1313" y="323" style="fill:#aea;stroke:black;"/>
   <text width="74" height="20" x="1318" y="337" style="fill:black;" font-family="Arial" font-size="16px">id_typ</text>
   <rect width="74" height="20" x="1313" y="343" style="fill:none;stroke:black;"/>
   <text width="74" height="20" x="1318" y="357" style="fill:black;" font-family="Arial" font-size="16px">nazev</text>
   <rect width="74" height="20" x="1313" y="363" style="fill:none;stroke:black;"/>
   <text width="74" height="20" x="1318" y="377" style="fill:black;" font-family="Arial" font-size="16px">id_hve</text>
   <rect width="74" height="20" x="1313" y="383" style="fill:none;stroke:black;"/>
   <text width="74" height="20" x="1318" y="397" style="fill:black;" font-family="Arial" font-size="16px">id_pla</text>
   <rect width="181" height="20" x="454" y="287" style="fill:#007;stroke:black;"/>
   <text width="181" height="20" x="459" y="301" style="fill:#fff;" font-family="Arial" font-size="16px"> vzdalenost</text>
   <rect width="181" height="20" x="454" y="307" style="fill:#aea;stroke:black;"/>
   <text width="181" height="20" x="459" y="321" style="fill:black;" font-family="Arial" font-size="16px">id_vzd</text>
   <rect width="181" height="20" x="454" y="327" style="fill:none;stroke:black;"/>
   <text width="181" height="20" x="459" y="341" style="fill:black;" font-family="Arial" font-size="16px">vzd_od_zeme_(AU)</text>
   <rect width="181" height="20" x="454" y="347" style="fill:none;stroke:black;"/>
   <text width="181" height="20" x="459" y="361" style="fill:black;" font-family="Arial" font-size="16px">vzd_od_slunce_min_(AU)</text>
   <rect width="181" height="20" x="454" y="367" style="fill:none;stroke:black;"/>
   <text width="181" height="20" x="459" y="381" style="fill:black;" font-family="Arial" font-size="16px">vzd_od_slunce_max_(AU)</text>
   <rect width="181" height="20" x="454" y="387" style="fill:none;stroke:black;"/>
   <text width="181" height="20" x="459" y="401" style="fill:black;" font-family="Arial" font-size="16px">id_tel</text>
</svg>
